<svg width="92" height="50" viewBox="0 0 92 50" fill="none" xmlns="http://www.w3.org/2000/svg">
<path fill-rule="evenodd" clip-rule="evenodd" d="M7.26532 7.30622C11.3142 3.25722 16.71 0.682718 22.3482 0.109651C24.5007 -0.109186 27.1484 0.00401595 29.353 0.409171C36.4362 1.71064 42.5749 6.01447 46.2917 12.2849C46.9017 13.3142 47.6065 14.7002 47.6065 14.8707C47.6065 14.9001 45.3632 14.9241 42.6213 14.924H37.6361L36.7568 13.9769C31.8973 8.74236 24.3532 7.24783 18.0021 10.2613C9.53202 14.2804 6.20324 24.3633 10.5929 32.7043C12.7551 36.8128 16.8434 39.9079 21.4194 40.9007C23.7054 41.3966 26.0238 41.3764 28.2285 40.9007C25.6143 42.984 21.6823 47.5235 20.043 49.5329C16.9595 48.9233 13.9358 47.7103 11.1388 45.854C5.17184 41.8937 1.31213 35.7846 0.190334 28.5247C-0.0624531 26.8885 -0.0636805 23.1188 0.188084 21.4688C1.0257 15.9792 3.45633 11.1152 7.26532 7.30622ZM49.6535 26.8433C49.6768 26.4491 49.6897 26.055 49.6922 25.6614L49.7029 23.9741H34.6706H19.6383V27.86V31.7459L29.5831 31.772C35.0527 31.7863 39.5279 31.8222 39.5279 31.8516C40.9963 30.8639 45.0771 28.4795 49.6535 26.8433Z" fill="#93B942"/>
<path d="M39.5279 31.8516C39.5279 31.9736 38.8748 33.186 38.4662 33.8226C36.0951 37.5163 32.3617 40.0089 28.2285 40.9007C25.6143 42.984 21.6823 47.5235 20.043 49.5329C30.1705 51.535 40.9442 47.0278 46.4578 37.4214C48.3367 34.1479 49.4378 30.4911 49.6535 26.8433C45.0771 28.4795 40.9963 30.8639 39.5279 31.8516Z" fill="#003C3D"/>
<path fill-rule="evenodd" clip-rule="evenodd" d="M66.4182 20.1164C60.9779 20.0932 54.5055 20.9782 51.9493 21.4235C52.5554 22.4088 53.2434 23.3319 53.8769 23.9701C55.3336 25.4372 58.4289 27.0508 61.8825 28.1434C63.1806 28.554 65.5932 29.681 66.6817 30.3851C68.5107 31.5683 69.3707 33.0432 69.5266 35.2639C69.7171 37.9784 68.2269 40.2009 65.6382 41.0634C64.8911 41.3123 64.6705 41.3383 63.3294 41.3358C61.9992 41.3334 61.7608 41.3047 61.0125 41.0581C60.0556 40.7426 59.1006 40.1444 58.5667 39.5259C57.7827 38.6179 57.253 37.2221 57.1271 35.7327L57.0615 34.9571H52.4597H47.8579L47.9275 35.9485C48.173 39.4398 49.6028 42.5154 52.1761 45.0872C54.4294 47.3394 57.1081 48.7389 60.3127 49.338C61.7261 49.6022 64.415 49.6026 65.8348 49.3386C71.8993 48.2111 76.5637 43.8472 77.9154 38.0363C78.1067 37.2136 78.1813 36.5432 78.2237 35.2639C78.3134 32.5601 77.9332 30.7041 76.8307 28.4636C76.0974 26.9734 75.2189 25.7905 73.9309 24.5592C72.348 23.0458 70.3071 21.8183 66.4182 20.1164Z" fill="#003C3D"/>
<path d="M61.9489 0.0532171C56.4846 0.738975 52.0375 4.31492 50.3884 9.34889C49.4958 12.0741 49.5357 15.5921 50.4917 18.4399C50.7939 19.34 51.3286 20.4144 51.9493 21.4235C54.5055 20.9782 60.9779 20.0932 66.4182 20.1164C65.6091 19.7623 64.72 19.3877 63.7384 18.9857C62.334 18.4106 60.158 17.1518 59.488 16.5271C58.4458 15.5552 58.0264 14.2083 58.2325 12.4962C58.4041 11.0702 59.458 9.65475 60.8761 8.94537C61.7951 8.48561 62.5148 8.34183 63.6726 8.38662C64.4212 8.41566 64.7242 8.47722 65.1924 8.69575C66.6264 9.36515 67.8212 11.0686 68.0928 12.8309L68.1578 13.2531L72.416 13.3218C74.7581 13.3595 76.8009 13.4149 76.9556 13.4446C77.2311 13.4976 77.2368 13.4887 77.2362 13.0048C77.2359 12.7332 77.1692 12.0738 77.088 11.5395C76.4191 7.13526 73.7194 3.44611 69.6831 1.42064C68.6652 0.909853 66.7583 0.318276 65.566 0.143411C64.5847 -0.000469208 62.7425 -0.0463845 61.9489 0.0532171Z" fill="#93B942"/>
<path d="M68.3097 20.1565C58.2816 20.3183 47.8576 21.7416 38.0406 25.6275C28.2237 29.5134 22.5993 33.5527 16.9239 38.7679C11.2484 43.9832 8.07837 49.6075 8.07837 49.9654H12.0154L15.799 45.8239L19.0714 42.5516L21.8324 40.0462L24.031 38.2055L27.0477 35.8535L29.144 34.3196L31.2915 32.8368L34.1036 31.1495L36.7113 29.7179L38.8076 28.6953L40.3926 27.9283L41.8754 27.2125C43.7502 26.3774 48.2769 24.5231 51.3856 23.7868C55.2715 22.8664 56.1407 22.4574 62.8388 21.4859C68.1972 20.7087 73.8999 20.5826 76.0815 20.6167C77.5984 20.5728 81.5933 20.5749 85.4383 20.9343C81.2958 20.2054 71.4798 20.1054 68.3097 20.1565Z" fill="#003C3D"/>
<path d="M19.736 49.9654C21.4745 47.4601 25.9228 42.9095 29.0417 40.0462C33.2334 36.1981 36.1577 34.0727 39.37 31.9563C43.7161 29.093 48.3178 27.2125 54.5046 24.9117C60.9911 22.4993 67.9518 21.9972 73.2182 22.0995C78.4846 22.2018 90.6536 22.1506 91.2672 22.304C91.565 22.3785 89.3453 21.6218 85.4383 20.9343C81.5933 20.5749 77.5984 20.5728 76.0815 20.6167C73.8999 20.5826 68.1972 20.7087 62.8388 21.4859C56.1407 22.4574 55.2715 22.8664 51.3856 23.7868C48.2769 24.5231 43.7502 26.3774 41.8754 27.2125L40.3926 27.9283L38.8076 28.6953L36.7113 29.7179L34.1036 31.1495L31.2915 32.8368L29.144 34.3196L27.0477 35.8535L24.031 38.2055L21.8324 40.0462L19.0714 42.5516L15.799 45.8239L12.0154 49.9654H19.736Z" fill="#93B942"/>
</svg>
